<svg id="Layer_1" data-name="Layer 1" xmlns="http://www.w3.org/2000/svg" xmlns:xlink="http://www.w3.org/1999/xlink" viewBox="0 0 48 48">
  <defs>
    <style>
      .cls-1, .cls-3 {
        fill: none;
      }

      .cls-2 {
        clip-path: url(#clip-path);
      }

      .cls-3, .cls-4 {
        stroke: #fff;
      }

      .cls-3 {
        stroke-width: 4px;
      }

      .cls-4 {
        fill: #fff;
        fill-rule: evenodd;
      }
    </style>
    <clipPath id="clip-path" transform="translate(2 2)">
      <circle class="cls-1" cx="22" cy="22" r="22"/>
    </clipPath>
  </defs>
  <g id="Oval-2">
    <g class="cls-2">
      <path id="path_1" data-name="path 1" class="cls-3" d="M22,44A22,22,0,1,0,0,22,21.9,21.9,0,0,0,22,44Z" transform="translate(2 2)"/>
    </g>
  </g>
  <path id="arxist" class="cls-4" d="M10.8,22A10.2,10.2,0,0,1,21,11.9a9.8,9.8,0,0,1,6.3,2.2V12.3h5.9V31.7H27.3V29.9A9.8,9.8,0,0,1,21,32.1,10.2,10.2,0,0,1,10.8,22Zm5-3.3h0l-.2.2c-.1.1-.1.2-.2.2v.3c-.1,0-.1.1-.2.2a.4.4,0,0,1-.1.3v.3a.3.3,0,0,1-.1.2V21a.4.4,0,0,1,.1.3v.2a.4.4,0,0,1,.1.3c.1.1.1.2.2.2s.1.2.1.3l.2.2c0,.1.1.1.2.2L19.1,26l.3.4h0c.1.2.3.3.4.4l.5.3h2.3l.5-.3c.1-.1.3-.2.4-.4h0l.4-.4,3.2-3.3c.1-.1.2-.1.2-.2l.2-.2c0-.1.1-.2.1-.3l.2-.2a.4.4,0,0,1,.1-.3v-.2c0-.1.1-.2.1-.3V19.9a.4.4,0,0,1-.1-.3c-.1-.1-.1-.2-.2-.2v-.3c-.1,0-.1-.1-.2-.2l-.2-.2h0c-.1-.1-.2-.3-.4-.4l-.5-.2-.5-.2H24.6l-.5.2-.5.2-.5.4-1.6,1.7-1.7-1.7-.5-.4-.5-.2-.5-.2H17.2l-.5.2-.5.2C16,18.4,15.9,18.6,15.8,18.7Z" transform="translate(2 2)"/>
</svg>
