<svg id="Layer_1" data-name="Layer 1" xmlns="http://www.w3.org/2000/svg" xmlns:xlink="http://www.w3.org/1999/xlink" viewBox="0 0 48 48">
  <defs>
    <style>
      .cls-1, .cls-3 {
        fill: none;
      }

      .cls-2 {
        clip-path: url(#clip-path);
      }

      .cls-3 {
        stroke: #fff;
        stroke-width: 4px;
      }

      .cls-4 {
        fill: #fff;
        fill-rule: evenodd;
      }
    </style>
    <clipPath id="clip-path" transform="translate(2 2)">
      <circle class="cls-1" cx="22" cy="22" r="22"/>
    </clipPath>
  </defs>
  <g id="Oval">
    <g class="cls-2">
      <path id="path_1" data-name="path 1" class="cls-3" d="M22,44A22,22,0,1,0,0,22,21.9,21.9,0,0,0,22,44Z" transform="translate(2 2)"/>
    </g>
  </g>
  <path id="Shape" class="cls-4" d="M22,11H17.5a6.5,6.5,0,0,0-2.7.5,7.1,7.1,0,0,0-2,1.2,7.1,7.1,0,0,0-1.2,2,6.5,6.5,0,0,0-.5,2.7A42.8,42.8,0,0,0,11,22a42.8,42.8,0,0,0,.1,4.5,6.5,6.5,0,0,0,.5,2.7,7.1,7.1,0,0,0,1.2,2,7.1,7.1,0,0,0,2,1.2,6.5,6.5,0,0,0,2.7.5h9a6.5,6.5,0,0,0,2.7-.5,7.1,7.1,0,0,0,2-1.2,7.1,7.1,0,0,0,1.2-2,6.5,6.5,0,0,0,.5-2.7A42.8,42.8,0,0,0,33,22a42.8,42.8,0,0,0-.1-4.5,6.5,6.5,0,0,0-.5-2.7,7.1,7.1,0,0,0-1.2-2,7.1,7.1,0,0,0-2-1.2,6.5,6.5,0,0,0-2.7-.5Zm0,2h4.4a11,11,0,0,1,2.1.4,5.7,5.7,0,0,1,1.3.8,5.7,5.7,0,0,1,.8,1.3,11,11,0,0,1,.4,2.1v8.8a11,11,0,0,1-.4,2.1,5.7,5.7,0,0,1-.8,1.3,5.7,5.7,0,0,1-1.3.8,11,11,0,0,1-2.1.4H17.6a11,11,0,0,1-2.1-.4,5.7,5.7,0,0,1-1.3-.8,5.7,5.7,0,0,1-.8-1.3,11,11,0,0,1-.4-2.1V17.6a11,11,0,0,1,.4-2.1,5.7,5.7,0,0,1,.8-1.3,5.7,5.7,0,0,1,1.3-.8,11,11,0,0,1,2.1-.4Zm5.8,4.4a1.3,1.3,0,1,0,0-2.6,1.3,1.3,0,0,0,0,2.6ZM16.4,22A5.6,5.6,0,0,1,22,16.4,5.7,5.7,0,0,1,27.7,22,5.8,5.8,0,0,1,22,27.7,5.7,5.7,0,0,1,16.4,22ZM22,25.7A3.7,3.7,0,0,1,18.4,22,3.6,3.6,0,0,1,22,18.4,3.7,3.7,0,0,1,25.7,22,3.8,3.8,0,0,1,22,25.7Z" transform="translate(2 2)"/>
</svg>
