<svg id="Layer_1" data-name="Layer 1" xmlns="http://www.w3.org/2000/svg" xmlns:xlink="http://www.w3.org/1999/xlink" viewBox="0 0 48 48">
  <defs>
    <style>
      .cls-1, .cls-3 {
        fill: none;
      }

      .cls-2 {
        clip-path: url(#clip-path);
      }

      .cls-3 {
        stroke: #fff;
        stroke-width: 4px;
      }

      .cls-4 {
        fill: #fff;
        fill-rule: evenodd;
      }
    </style>
    <clipPath id="clip-path" transform="translate(2 2)">
      <circle class="cls-1" cx="22" cy="22" r="22"/>
    </clipPath>
  </defs>
  <g id="Oval">
    <g class="cls-2">
      <path id="path_1" data-name="path 1" class="cls-3" d="M22,44A22,22,0,1,0,0,22,21.9,21.9,0,0,0,22,44Z" transform="translate(2 2)"/>
    </g>
  </g>
  <path id="Shape" class="cls-4" d="M30.5,16.8a4.1,4.1,0,0,0,1.9-2.5,6.4,6.4,0,0,1-2.7,1.1A4.5,4.5,0,0,0,26.5,14a4.4,4.4,0,0,0-4.3,4.5c0,.4.1.7.1,1.1a11.9,11.9,0,0,1-8.8-4.8,4.6,4.6,0,0,0-.6,2.3,4.5,4.5,0,0,0,1.9,3.8,3.6,3.6,0,0,1-2-.6h0a4.4,4.4,0,0,0,3.5,4.4l-1.1.2h-.8a4.4,4.4,0,0,0,4,3.2A8.7,8.7,0,0,1,13,30H12a12.5,12.5,0,0,0,6.6,2c7.9,0,12.3-6.9,12.3-12.9v-.6A12.1,12.1,0,0,0,33,16.1,7.2,7.2,0,0,1,30.5,16.8Z" transform="translate(2 2)"/>
</svg>
